<?xml version="1.0" encoding="UTF-8" standalone="no"?>
<svg
   xmlns:dc="http://purl.org/dc/elements/1.1/"
   xmlns:cc="http://creativecommons.org/ns#"
   xmlns:rdf="http://www.w3.org/1999/02/22-rdf-syntax-ns#"
   xmlns:svg="http://www.w3.org/2000/svg"
   xmlns="http://www.w3.org/2000/svg"
   xmlns:sodipodi="http://sodipodi.sourceforge.net/DTD/sodipodi-0.dtd"
   xmlns:inkscape="http://www.inkscape.org/namespaces/inkscape"
   width="210mm"
   height="210mm"
   viewBox="0 0 744.09449 744.09448"
   id="svg2"
   version="1.1"
   inkscape:version="0.48.4 r9939"
   sodipodi:docname="favicon.svg"
   inkscape:export-filename="/home/agatita/Web/cv/build/images/favicon.png"
   inkscape:export-xdpi="90"
   inkscape:export-ydpi="90">
  <metadata
     id="metadata50">
    <rdf:RDF>
      <cc:Work
         rdf:about="">
        <dc:format>image/svg+xml</dc:format>
        <dc:type
           rdf:resource="http://purl.org/dc/dcmitype/StillImage" />
        <dc:title></dc:title>
      </cc:Work>
    </rdf:RDF>
  </metadata>
  <defs
     id="defs48" />
  <sodipodi:namedview
     pagecolor="#ffffff"
     bordercolor="#666666"
     borderopacity="1"
     objecttolerance="10"
     gridtolerance="10"
     guidetolerance="10"
     inkscape:pageopacity="0"
     inkscape:pageshadow="2"
     inkscape:window-width="1366"
     inkscape:window-height="721"
     id="namedview46"
     showgrid="false"
     inkscape:zoom="0.31716402"
     inkscape:cx="-122.96477"
     inkscape:cy="372.04724"
     inkscape:window-x="0"
     inkscape:window-y="25"
     inkscape:window-maximized="1"
     inkscape:current-layer="g3826" />
  <g
     transform="translate(0 -308.268)"
     id="g4">
    <g
       id="g3046"
       transform="matrix(2.434417,0,0,2.434417,-533.67029,-975.85517)">
      <text
         id="text6"
         word-spacing="0"
         letter-spacing="0"
         font-size="71.011"
         font-weight="400"
         transform="scale(0.9995,1.0005)"
         y="1174.449"
         x="219.63901"
         style="font-size:71.01100159px;font-weight:400;line-height:125%;letter-spacing:0;word-spacing:0;stroke:#ffff00;stroke-width:1.77499998;font-family:Sans"
         sodipodi:linespacing="125%" />
      <g
         id="g3826"
         transform="matrix(1.0265936,0,0,1.0265936,-9.894069,-18.092024)">
        <circle
           style="fill:#290328;fill-opacity:1;stroke:none"
           sodipodi:ry="146.105"
           sodipodi:rx="146.105"
           sodipodi:cy="680.315"
           sodipodi:cx="372.047"
           r="146.105"
           cy="680.315"
           cx="372.047"
           id="circle40"
           d="m 518.15199,680.315 c 0,80.69156 -65.41343,146.105 -146.10499,146.105 -80.69156,0 -146.105,-65.41344 -146.105,-146.105 0,-80.69156 65.41344,-146.10499 146.105,-146.10499 80.69156,0 146.10499,65.41343 146.10499,146.10499 z" />
        <g
           id="g3831">
          <path
             id="path42"
             d="m 281.84223,723.78625 c 9.83718,-13.82836 18.27583,-28.63525 26.33595,-43.6177 11.95796,-23.29814 21.24329,-47.86592 30.26861,-72.47963 l 2.78819,-7.61937 c 1.73559,-4.746 3.28598,-9.64682 5.22008,-14.31504 0.16223,-0.39037 -0.27185,0.80224 -0.40741,1.20298 2.62745,9.03273 0.0741,6.71788 13.75577,5.56083 0.42296,-0.0363 0.33111,-0.92372 0.7289,-1.07853 0.0333,-0.0141 -0.14001,1.6941 -0.23334,3.5556 -0.08,1.59188 -0.12889,3.18524 -0.1926,4.77786 -0.16296,24.45963 -0.92816,48.90148 -1.6178,73.35075 -0.79853,27.08633 -1.1052,54.28601 2.7356,81.1479 1.66521,5.93565 2.62967,20.7455 10.72905,21.55663 5.50675,-1.20891 10.07275,-4.50526 14.64541,-7.69716 9.3394,-6.35195 18.05065,7.26752 8.71124,13.61947 -8.93569,5.95935 -17.57212,11.38684 -28.67229,9.44459 -1.98521,-0.87335 -4.1171,-1.4541 -5.95564,-2.61856 -10.47646,-6.63344 -12.67131,-20.69661 -15.11283,-31.94716 -3.90524,-27.81005 -3.79117,-55.93863 -2.89634,-83.9798 0.69261,-24.52407 1.45188,-49.04074 1.62595,-73.57519 0.4289,-10.05053 -0.61778,-22.59294 15.46839,-17.05952 1.98373,0.68149 1.37409,4.07265 2.06151,6.10898 -1.46669,8.82384 -6.11491,16.79285 -8.58235,25.33372 -9.29644,25.35372 -18.88918,50.64892 -31.23603,74.63077 -8.77792,16.28099 -17.87287,32.49679 -28.98119,47.23405 -7.91123,8.15716 -19.09807,-3.37931 -11.18758,-11.53647 z"
             inkscape:connector-curvature="0"
             style="fill:#ffffff" />
          <path
             id="path44"
             d="m 295.36243,683.20711 c 6.73344,5.38305 14.57208,6.57936 22.84479,6.84085 15.54098,-0.29334 30.37676,-5.39712 45.17551,-9.75719 6.47047,-1.93262 13.42094,-3.79858 19.32548,-6.90751 -0.78223,0.22963 -1.32002,1.13335 -1.64669,1.88003 0.44297,7.33789 8.55124,1.47187 15.48542,0.46371 0.58667,5.83935 -15.92321,5.05193 -15.75802,-0.82742 0.0948,-4.63044 0.005,-0.80742 8.08012,-8.9831 -0.49186,0.0593 -1.01779,0.37334 -1.47483,0.17852 -0.10519,-0.0444 0.70149,-0.27334 2.22448,-1.37039 2.88152,-2.07411 5.62749,-4.30007 8.30827,-6.63936 8.50606,-8.28013 11.75129,-15.83506 13.70614,-27.52487 0.48371,-9.09347 -2.02892,-17.44175 -7.19271,-24.72038 -0.44889,-0.42445 -0.88001,-0.87112 -1.34817,-1.27409 -0.37926,-0.32593 -0.72815,-0.72816 -1.19038,-0.90742 -1.53336,-0.59705 0.92223,1.09928 1.70224,1.20372 2.30819,0.30964 2.07189,-1.00594 2.12967,0.40742 -4.95267,13.6402 -6.74307,28.3671 -8.51495,42.74213 -1.84595,20.92328 -1.74447,42.00953 2.9319,62.51503 5.16822,15.14319 10.58312,18.95362 25.7715,20.69587 12.30167,-0.11852 24.11,-3.82228 34.82053,-10.00756 3.04968,-1.76077 5.86009,-3.93043 8.79051,-5.89639 9.41718,-6.22824 17.95879,7.5053 8.54087,13.73355 -3.53561,2.3104 -6.93492,4.86081 -10.60757,6.93195 -13.48095,7.60012 -28.34191,11.80315 -43.72882,11.39722 -3.23708,-0.52816 -6.5438,-0.71705 -9.71125,-1.58373 -15.40098,-4.2134 -24.97002,-16.28247 -29.29304,-31.60715 -0.71409,-3.2519 -1.58151,-6.47121 -2.143,-9.75422 -3.29857,-19.28771 -2.47411,-39.07468 -1.06594,-58.49201 1.31631,-10.57498 2.77782,-20.99069 5.10748,-31.3864 0.9578,-4.27414 2.31856,-10.21127 4.03932,-14.3343 0.76076,-1.82077 1.843,-3.47931 2.76449,-5.2186 1.17187,-1.29483 2.09781,-2.88448 3.51561,-3.88524 7.76604,-5.48379 15.14319,-1.24298 20.38105,5.26156 7.48678,11.05054 11.09647,23.52999 9.8646,37.11168 -2.89857,15.69283 -7.59271,26.11003 -19.10844,37.09686 -5.47268,4.69193 -11.16314,9.9483 -18.26695,11.61203 7.61493,-9.05199 6.85196,-11.43277 6.78233,-6.82603 -0.20297,7.11196 -18.39806,5.64824 -15.75284,-1.70373 11.6987,-2.663 15.35876,-7.8653 16.02766,1.18669 0.0118,4.77266 -1.54225,9.18903 -5.42231,12.11722 -7.25567,4.47933 -15.70246,6.48973 -23.72703,9.00162 -16.42766,4.84007 -32.92346,10.34979 -50.19706,10.37053 -12.85353,-0.68298 -23.30702,-2.82301 -33.35755,-11.60463 -7.91123,-8.15716 3.27709,-19.69363 11.18758,-11.53647 z"
             inkscape:connector-curvature="0"
             style="fill:#ffffff" />
        </g>
      </g>
    </g>
  </g>
</svg>
