<?xml version="1.0" encoding="UTF-8" standalone="no"?>
<!-- Created with Inkscape (http://www.inkscape.org/) -->

<svg
   xmlns:osb="http://www.openswatchbook.org/uri/2009/osb"
   xmlns:dc="http://purl.org/dc/elements/1.1/"
   xmlns:cc="http://creativecommons.org/ns#"
   xmlns:rdf="http://www.w3.org/1999/02/22-rdf-syntax-ns#"
   xmlns:svg="http://www.w3.org/2000/svg"
   xmlns="http://www.w3.org/2000/svg"
   xmlns:sodipodi="http://sodipodi.sourceforge.net/DTD/sodipodi-0.dtd"
   xmlns:inkscape="http://www.inkscape.org/namespaces/inkscape"
   width="210mm"
   height="210mm"
   viewBox="0 0 744.09449 744.09448"
   id="svg2"
   version="1.1"
   inkscape:version="0.48.4 r9939"
   sodipodi:docname="logo-V2.svg"
   inkscape:export-filename="/home/agatita/Web/cv/src/images/logo-V2.png"
   inkscape:export-xdpi="90"
   inkscape:export-ydpi="90">
  <defs
     id="defs4">
    <linearGradient
       id="linearGradient4477">
      <stop
         style="stop-color:#2f052f;stop-opacity:1;"
         offset="0"
         id="stop4479" />
      <stop
         style="stop-color:#340034;stop-opacity:0;"
         offset="1"
         id="stop4481" />
    </linearGradient>
    <linearGradient
       id="linearGradient4361"
       osb:paint="gradient">
      <stop
         style="stop-color:#2f052f;stop-opacity:1;"
         offset="0"
         id="stop4363" />
      <stop
         style="stop-color:#2f052f;stop-opacity:0;"
         offset="1"
         id="stop4365" />
    </linearGradient>
  </defs>
  <sodipodi:namedview
     id="base"
     pagecolor="#ffffff"
     bordercolor="#666666"
     borderopacity="1.0"
     inkscape:pageopacity="0.0"
     inkscape:pageshadow="2"
     inkscape:zoom="0.1566991"
     inkscape:cx="254.38174"
     inkscape:cy="308.89827"
     inkscape:document-units="px"
     inkscape:current-layer="layer1"
     showgrid="false"
     inkscape:window-width="1366"
     inkscape:window-height="721"
     inkscape:window-x="0"
     inkscape:window-y="25"
     inkscape:window-maximized="1"
     inkscape:snap-page="true" />
  <metadata
     id="metadata7">
    <rdf:RDF>
      <cc:Work
         rdf:about="">
        <dc:format>image/svg+xml</dc:format>
        <dc:type
           rdf:resource="http://purl.org/dc/dcmitype/StillImage" />
        <dc:title />
      </cc:Work>
    </rdf:RDF>
  </metadata>
  <g
     inkscape:label="Layer 1"
     inkscape:groupmode="layer"
     id="layer1"
     transform="translate(0,-308.26772)">
    <text
       xml:space="preserve"
       style="font-style:normal;font-weight:normal;font-size:71.01134491px;line-height:125%;font-family:Sans;letter-spacing:0px;word-spacing:0px;fill:#000000;fill-opacity:1;stroke:#ffff00;stroke-width:1.77528358px;stroke-linecap:butt;stroke-linejoin:miter;stroke-opacity:1;"
       x="219.63907"
       y="1174.4492"
       id="text4312"
       sodipodi:linespacing="125%"
       transform="scale(0.99950401,1.0004962)"><tspan
         sodipodi:role="line"
         id="tspan4314"
         x="219.63907"
         y="1174.4492"
         style="stroke-width:1.77528358px;stroke:#ffff00;stroke-opacity:1;" /></text>
    <ellipse
       ry="352.62393"
       rx="352.63126"
       style="fill:#ffffff;fill-opacity:1;stroke:#22031c;stroke-width:11.24700011000000011;stroke-linecap:square;stroke-miterlimit:4;stroke-dasharray:none;stroke-opacity:1;opacity:1"
       id="path4153-6-7"
       cx="372.04721"
       cy="680.315"
       d="m 724.67847,680.315 c 0,194.74882 -157.87839,352.6239 -352.63126,352.6239 -194.75286,0 -352.631255,-157.87508 -352.631255,-352.6239 0,-194.74882 157.878395,-352.62393 352.631255,-352.62393 194.75287,0 352.63126,157.87511 352.63126,352.62393 z" />
    <ellipse
       cy="680.31494"
       cx="372.04724"
       id="path4153-6"
       style="opacity:1;fill:none;fill-opacity:1;stroke:#22031c;stroke-width:17.04600017;stroke-linecap:square;stroke-miterlimit:4;stroke-dasharray:none;stroke-opacity:1"
       rx="284.44443"
       ry="284.50339"
       d="m 656.49167,680.31494 c 0,157.12688 -127.35011,284.50339 -284.44443,284.50339 -157.09432,0 -284.444426,-127.37651 -284.444426,-284.50339 0,-157.12688 127.350106,-284.50339 284.444426,-284.50339 157.09432,0 284.44443,127.37651 284.44443,284.50339 z" />
    <circle
       style="fill:none;fill-opacity:1;stroke:#22031c;stroke-opacity:1;stroke-width:20.54600021;stroke-miterlimit:4;stroke-dasharray:none"
       id="path4153"
       cx="372.04724"
       cy="680.315"
       r="214.98141"
       d="m 587.02866,680.315 c 0,118.73096 -96.25046,214.98142 -214.98142,214.98142 -118.73096,0 -214.98141,-96.25046 -214.98141,-214.98142 0,-118.73095 96.25045,-214.98141 214.98141,-214.98141 118.73096,0 214.98142,96.25046 214.98142,214.98141 z"
       sodipodi:cx="372.04724"
       sodipodi:cy="680.315"
       sodipodi:rx="214.98141"
       sodipodi:ry="214.98141"
       transform="matrix(0,-1,1,0,-308.2678,1052.3622)" />
    <g
       id="g3816"
       style="fill:#22031c;fill-opacity:1">
      <g
         id="g3873"
         style="fill:#22031c;fill-opacity:1;opacity:1">
        <g
           id="g3896"
           style="fill:#d6d6d6;fill-opacity:1">
          <circle
             transform="translate(0.67527554,0.41373345)"
             d="m 395.09835,333.46307 c 0,13.43474 -10.89101,24.32574 -24.32574,24.32574 -13.43473,0 -24.32573,-10.891 -24.32573,-24.32574 0,-13.43473 10.891,-24.32573 24.32573,-24.32573 13.43473,0 24.32574,10.891 24.32574,24.32573 z"
             r="24.325733"
             cy="333.46307"
             cx="370.77261"
             id="path4185"
             style="fill:#22031c;fill-opacity:1;stroke:none;opacity:1;"
             sodipodi:cx="370.77261"
             sodipodi:cy="333.46307"
             sodipodi:rx="24.325733"
             sodipodi:ry="24.325733" />
          <circle
             transform="translate(13.153863,-21.187051)"
             d="m 695.80822,867.04626 c 0,13.43474 -10.89101,24.32574 -24.32574,24.32574 -13.43473,0 -24.32573,-10.891 -24.32573,-24.32574 0,-13.43473 10.891,-24.32573 24.32573,-24.32573 13.43473,0 24.32574,10.891 24.32574,24.32573 z"
             r="24.325733"
             cy="867.04626"
             cx="671.48248"
             id="path4185-4"
             style="opacity:1;fill:#22031c;fill-opacity:1;stroke:none;"
             sodipodi:cx="671.48248"
             sodipodi:cy="867.04626"
             sodipodi:rx="24.325733"
             sodipodi:ry="24.325733" />
          <circle
             transform="translate(-7.9195559,-21.187051)"
             d="m 94.136166,867.04626 c 0,13.43474 -10.891002,24.32574 -24.325734,24.32574 -13.434731,0 -24.325733,-10.891 -24.325733,-24.32574 0,-13.43473 10.891002,-24.32573 24.325733,-24.32573 13.434732,0 24.325734,10.891 24.325734,24.32573 z"
             r="24.325733"
             cy="867.04626"
             cx="69.810432"
             id="path4185-2"
             style="opacity:1;fill:#22031c;fill-opacity:1;stroke:none;"
             sodipodi:cx="69.810432"
             sodipodi:cy="867.04626"
             sodipodi:rx="24.325733"
             sodipodi:ry="24.325733" />
          <ellipse
             d="m 194.67193,876.01758 c 0,13.30259 -10.89101,24.08648 -24.32575,24.08648 -13.43474,0 -24.32575,-10.78389 -24.32575,-24.08648 0,-13.3026 10.89101,-24.08648 24.32575,-24.08648 13.43474,0 24.32575,10.78388 24.32575,24.08648 z"
             ry="24.086481"
             rx="24.32575"
             cy="876.01758"
             cx="170.34618"
             id="path4185-7"
             style="opacity:1;fill:#22031c;fill-opacity:1;stroke:none;"
             sodipodi:cx="170.34618"
             sodipodi:cy="876.01758"
             sodipodi:rx="24.32575"
             sodipodi:ry="24.086481" />
          <ellipse
             d="m 395.45539,962.32751 c 0,13.3026 -10.89101,24.08649 -24.32575,24.08649 -13.43474,0 -24.32575,-10.78389 -24.32575,-24.08649 0,-13.30259 10.89101,-24.08648 24.32575,-24.08648 13.43474,0 24.32575,10.78389 24.32575,24.08648 z"
             ry="24.086481"
             rx="24.32575"
             cy="962.32751"
             cx="371.12964"
             id="path4185-9"
             style="opacity:1;fill:#22031c;fill-opacity:1;stroke:none;"
             sodipodi:cx="371.12964"
             sodipodi:cy="962.32751"
             sodipodi:rx="24.32575"
             sodipodi:ry="24.086481" />
          <ellipse
             d="m 599.08753,876.01758 c 0,13.30259 -10.89101,24.08648 -24.32575,24.08648 -13.43474,0 -24.32575,-10.78389 -24.32575,-24.08648 0,-13.3026 10.89101,-24.08648 24.32575,-24.08648 13.43474,0 24.32575,10.78388 24.32575,24.08648 z"
             ry="24.086481"
             rx="24.32575"
             cy="876.01758"
             cx="574.76178"
             id="path4185-21"
             style="opacity:1;fill:#22031c;fill-opacity:1;stroke:none;"
             sodipodi:cx="574.76178"
             sodipodi:cy="876.01758"
             sodipodi:rx="24.32575"
             sodipodi:ry="24.086481" />
          <ellipse
             d="m 681.70209,677.30414 c 0,13.30259 -10.89101,24.08648 -24.32575,24.08648 -13.43474,0 -24.32575,-10.78389 -24.32575,-24.08648 0,-13.3026 10.89101,-24.08648 24.32575,-24.08648 13.43474,0 24.32575,10.78388 24.32575,24.08648 z"
             ry="24.086481"
             rx="24.32575"
             cy="677.30414"
             cx="657.37634"
             id="path4185-0"
             style="opacity:1;fill:#22031c;fill-opacity:1;stroke:none;"
             sodipodi:cx="657.37634"
             sodipodi:cy="677.30414"
             sodipodi:rx="24.32575"
             sodipodi:ry="24.086481"
             transform="translate(0,0.625419)" />
          <ellipse
             d="m 599.08753,478.35654 c 0,13.30259 -10.89101,24.08648 -24.32575,24.08648 -13.43474,0 -24.32575,-10.78389 -24.32575,-24.08648 0,-13.3026 10.89101,-24.08648 24.32575,-24.08648 13.43474,0 24.32575,10.78388 24.32575,24.08648 z"
             ry="24.086481"
             rx="24.32575"
             cy="478.35654"
             cx="574.76178"
             id="path4185-5"
             style="opacity:1;fill:#22031c;fill-opacity:1;stroke:none;"
             sodipodi:cx="574.76178"
             sodipodi:cy="478.35654"
             sodipodi:rx="24.32575"
             sodipodi:ry="24.086481" />
          <ellipse
             d="m 395.45539,398.30243 c 0,13.3026 -10.89101,24.08648 -24.32575,24.08648 -13.43474,0 -24.32575,-10.78388 -24.32575,-24.08648 0,-13.3026 10.89101,-24.08648 24.32575,-24.08648 13.43474,0 24.32575,10.78388 24.32575,24.08648 z"
             ry="24.086481"
             rx="24.32575"
             cy="398.30243"
             cx="371.12964"
             id="path4185-6"
             style="opacity:1;fill:#22031c;fill-opacity:1;stroke:none;"
             sodipodi:cx="371.12964"
             sodipodi:cy="398.30243"
             sodipodi:rx="24.32575"
             sodipodi:ry="24.086481"
             transform="translate(0.31825039,0)" />
          <ellipse
             d="m 194.67193,478.35654 c 0,13.30259 -10.89101,24.08648 -24.32575,24.08648 -13.43474,0 -24.32575,-10.78389 -24.32575,-24.08648 0,-13.3026 10.89101,-24.08648 24.32575,-24.08648 13.43474,0 24.32575,10.78388 24.32575,24.08648 z"
             ry="24.086481"
             rx="24.32575"
             cy="478.35654"
             cx="170.34618"
             id="path4185-3"
             style="fill:#22031c;fill-opacity:1;stroke:none;opacity:1;"
             sodipodi:cx="170.34618"
             sodipodi:cy="478.35654"
             sodipodi:rx="24.32575"
             sodipodi:ry="24.086481" />
          <ellipse
             d="m 111.04389,677.30414 c 0,13.30259 -10.89101,24.08648 -24.32575,24.08648 -13.434741,0 -24.325751,-10.78389 -24.325751,-24.08648 0,-13.3026 10.89101,-24.08648 24.325751,-24.08648 13.43474,0 24.32575,10.78388 24.32575,24.08648 z"
             ry="24.086481"
             rx="24.32575"
             cy="677.30414"
             cx="86.71814"
             id="path4185-46"
             style="opacity:1;fill:#22031c;fill-opacity:1;stroke:none;"
             sodipodi:cx="86.71814"
             sodipodi:cy="677.30414"
             sodipodi:rx="24.32575"
             sodipodi:ry="24.086481"
             transform="translate(0,0.625419)" />
          <circle
             transform="translate(209.05051,206.55257)"
             d="m 395.45537,471.37698 c 0,13.43474 -10.891,24.32574 -24.32573,24.32574 -13.43473,0 -24.32573,-10.891 -24.32573,-24.32574 0,-13.43473 10.891,-24.32573 24.32573,-24.32573 13.43473,0 24.32573,10.891 24.32573,24.32573 z"
             r="24.325733"
             cy="471.37698"
             cx="371.12964"
             id="path4185-48"
             style="opacity:1;fill:#22031c;fill-opacity:1;stroke:none;"
             sodipodi:cx="371.12964"
             sodipodi:cy="471.37698"
             sodipodi:rx="24.325733"
             sodipodi:ry="24.325733" />
          <circle
             transform="translate(-208.94707,-213.32343)"
             d="m 395.45537,891.25299 c 0,13.43473 -10.891,24.32573 -24.32573,24.32573 -13.43473,0 -24.32573,-10.891 -24.32573,-24.32573 0,-13.43473 10.891,-24.32573 24.32573,-24.32573 13.43473,0 24.32573,10.891 24.32573,24.32573 z"
             r="24.325733"
             cy="891.25299"
             cx="371.12964"
             id="path4185-38"
             style="opacity:1;fill:#22031c;fill-opacity:1;stroke:none;"
             sodipodi:cx="371.12964"
             sodipodi:cy="891.25299"
             sodipodi:rx="24.325733"
             sodipodi:ry="24.325733" />
        </g>
      </g>
    </g>
    <circle
       r="146.10461"
       cy="680.31494"
       cx="372.04724"
       id="path3351"
       style="fill:#22031c;fill-opacity:1;stroke:#22031c;stroke-width:11.54600012000000042;stroke-linecap:square;stroke-miterlimit:4;stroke-dasharray:none;stroke-opacity:1;opacity:1"
       d="m 518.15186,680.31494 c 0,80.69135 -65.41327,146.10462 -146.10462,146.10462 -80.69135,0 -146.10461,-65.41327 -146.10461,-146.10462 0,-80.69135 65.41326,-146.10461 146.10461,-146.10461 80.69135,0 146.10462,65.41326 146.10462,146.10461 z" />
    <g
       id="g3831"
       style="fill:#d6d6d6;fill-opacity:1">
      <path
         id="path42"
         d="m 286.24496,720.38122 c 9.61935,-13.52216 17.87114,-28.00117 25.75279,-42.65186 11.69317,-22.78225 20.77289,-46.80602 29.59836,-70.8747 l 2.72645,-7.45065 c 1.69716,-4.64091 3.21322,-9.43321 5.10449,-13.99806 0.15864,-0.38173 -0.26583,0.78447 -0.39839,1.17634 2.56927,8.83272 0.0725,6.56912 13.45118,5.43769 0.41359,-0.0355 0.32378,-0.90326 0.71276,-1.05464 0.0326,-0.0138 -0.13691,1.65658 -0.22818,3.47686 -0.0782,1.55663 -0.12603,3.11471 -0.18833,4.67207 -0.15935,23.91801 -0.90761,47.81864 -1.58198,71.72653 -0.78085,26.48655 -1.08072,53.08394 2.67503,79.35102 1.62833,5.80421 2.57144,20.28613 10.49147,21.0793 5.38481,-1.18214 9.84971,-4.4055 14.32112,-7.52672 9.13259,-6.2113 17.65095,7.10659 8.51834,13.31789 -8.73782,5.82739 -17.18302,11.1347 -28.03739,9.23545 -1.94125,-0.85401 -4.02594,-1.4219 -5.82377,-2.56057 -10.24447,-6.48656 -12.39072,-20.23832 -14.77818,-31.23975 -3.81876,-27.19425 -3.70722,-54.69997 -2.8322,-82.12022 0.67727,-23.98103 1.41973,-47.95482 1.58994,-71.946 0.4194,-9.82797 -0.6041,-22.09265 15.12587,-16.68176 1.93981,0.6664 1.34366,3.98247 2.01586,5.9737 -1.43421,8.62846 -5.9795,16.42101 -8.39231,24.77275 -9.09058,24.79231 -18.47091,49.52739 -30.54436,72.97821 -8.58355,15.92048 -17.47711,31.77721 -28.33945,46.18814 -7.73605,7.97653 -18.67518,-3.30449 -10.93985,-11.28102 z"
         inkscape:connector-curvature="0"
         style="fill:#d6d6d6;fill-opacity:1" />
      <path
         id="path44"
         d="m 299.46578,680.70063 c 6.58434,5.26385 14.24941,6.43367 22.33893,6.68937 15.19685,-0.28684 29.70412,-5.27761 44.17518,-9.54113 6.32719,-1.88983 13.12376,-3.71447 18.89755,-6.75456 -0.76491,0.22455 -1.29079,1.10826 -1.61023,1.8384 0.43317,7.17541 8.36189,1.43928 15.14253,0.45345 0.57368,5.71004 -15.57062,4.94006 -15.40909,-0.8091 0.0927,-4.52791 0.005,-0.78954 7.9012,-8.78419 -0.48097,0.058 -0.99525,0.36508 -1.44217,0.17457 -0.10286,-0.0434 0.68596,-0.26729 2.17522,-1.34005 2.81772,-2.02818 5.50288,-4.20485 8.1243,-6.49234 8.31771,-8.09678 11.49108,-15.48442 13.40264,-26.91538 0.473,-8.89211 -1.98399,-17.05553 -7.03344,-24.17299 -0.43895,-0.41505 -0.86052,-0.85183 -1.31832,-1.24588 -0.37086,-0.31871 -0.71202,-0.71203 -1.16402,-0.88732 -1.4994,-0.58383 0.90181,1.07493 1.66455,1.17706 2.25708,0.30278 2.02601,-0.98366 2.08251,0.3984 -4.843,13.33816 -6.59375,27.73896 -8.3264,41.79568 -1.80507,20.45997 -1.70584,41.0793 2.86698,61.13075 5.05378,14.80787 10.34877,18.53392 25.20084,20.23759 12.02927,-0.11589 23.57612,-3.73764 34.04949,-9.78596 2.98215,-1.72178 5.73033,-3.84339 8.59586,-5.76582 9.20865,-6.09033 17.56112,7.33911 8.35174,13.42944 -3.45732,2.25924 -6.78135,4.75318 -10.37268,6.77846 -13.18244,7.43183 -27.71433,11.54179 -42.76052,11.14485 -3.1654,-0.51647 -6.3989,-0.70118 -9.49622,-1.54866 -15.05995,-4.12011 -24.4171,-15.92193 -28.64439,-30.90727 -0.69828,-3.17989 -1.54649,-6.32792 -2.09555,-9.53823 -3.22553,-18.86062 -2.41933,-38.20944 -1.04234,-57.19681 1.28717,-10.34082 2.71631,-20.52589 4.99439,-30.6914 0.93659,-4.1795 2.26722,-9.98516 3.94987,-14.0169 0.74392,-1.78045 1.80219,-3.40226 2.70328,-5.10304 1.14592,-1.26616 2.05136,-2.82061 3.43776,-3.79921 7.59408,-5.36236 14.80787,-1.21545 19.92975,5.14505 7.321,10.80585 10.85076,23.00897 9.64617,36.28991 -2.83439,15.34534 -7.42459,25.53187 -18.68532,36.27542 -5.3515,4.58803 -10.91595,9.72801 -17.86246,11.3549 7.44631,-8.85155 6.70023,-11.17961 6.63214,-6.67488 -0.19847,6.95448 -17.99066,5.52317 -15.40402,-1.666 11.43966,-2.60404 15.01867,-7.69114 15.67276,1.16041 0.0115,4.66698 -1.5081,8.98556 -5.30224,11.84891 -7.09501,4.38014 -15.35476,6.34602 -23.20164,8.80229 -16.0639,4.7329 -32.19443,10.12061 -49.08554,10.14089 -12.56891,-0.66785 -22.79092,-2.7605 -32.6189,-11.34766 -7.73605,-7.97654 3.20452,-19.25755 10.93985,-11.28102 z"
         inkscape:connector-curvature="0"
         style="fill:#d6d6d6;fill-opacity:1" />
    </g>
  </g>
</svg>
