<?xml version="1.0" encoding="UTF-8" standalone="no"?>
<!-- Created with Inkscape (http://www.inkscape.org/) -->

<svg
   xmlns:dc="http://purl.org/dc/elements/1.1/"
   xmlns:cc="http://creativecommons.org/ns#"
   xmlns:rdf="http://www.w3.org/1999/02/22-rdf-syntax-ns#"
   xmlns:svg="http://www.w3.org/2000/svg"
   xmlns="http://www.w3.org/2000/svg"
   xmlns:sodipodi="http://sodipodi.sourceforge.net/DTD/sodipodi-0.dtd"
   xmlns:inkscape="http://www.inkscape.org/namespaces/inkscape"
   width="210mm"
   height="210mm"
   viewBox="0 0 744.09449 744.09448"
   id="svg2"
   version="1.1"
   inkscape:version="0.91 r13725"
   sodipodi:docname="logo-onblack.svg"
   inkscape:export-filename="/home/agathe/logo-al-2.png"
   inkscape:export-xdpi="90"
   inkscape:export-ydpi="90">
  <defs
     id="defs4" />
  <sodipodi:namedview
     id="base"
     pagecolor="#ffffff"
     bordercolor="#666666"
     borderopacity="1.0"
     inkscape:pageopacity="0.0"
     inkscape:pageshadow="2"
     inkscape:zoom="0.62162861"
     inkscape:cx="215.66008"
     inkscape:cy="420.183"
     inkscape:document-units="px"
     inkscape:current-layer="layer1"
     showgrid="false"
     inkscape:window-width="1301"
     inkscape:window-height="744"
     inkscape:window-x="65"
     inkscape:window-y="24"
     inkscape:window-maximized="1"
     inkscape:snap-page="true" />
  <metadata
     id="metadata7">
    <rdf:RDF>
      <cc:Work
         rdf:about="">
        <dc:format>image/svg+xml</dc:format>
        <dc:type
           rdf:resource="http://purl.org/dc/dcmitype/StillImage" />
        <dc:title />
      </cc:Work>
    </rdf:RDF>
  </metadata>
  <g
     inkscape:label="Layer 1"
     inkscape:groupmode="layer"
     id="layer1"
     transform="translate(0,-308.26772)">
    <text
       xml:space="preserve"
       style="font-style:normal;font-weight:normal;font-size:71.01134491px;line-height:125%;font-family:Sans;letter-spacing:0px;word-spacing:0px;fill:#000000;fill-opacity:1;stroke:#ffff00;stroke-width:1.77528358px;stroke-linecap:butt;stroke-linejoin:miter;stroke-opacity:1;"
       x="219.63907"
       y="1174.4492"
       id="text4312"
       sodipodi:linespacing="125%"
       transform="scale(0.99950401,1.0004962)"><tspan
         sodipodi:role="line"
         id="tspan4314"
         x="219.63907"
         y="1174.4492"
         style="stroke-width:1.77528358px;stroke:#ffff00;stroke-opacity:1;" /></text>
    <ellipse
       ry="352.62393"
       rx="352.63126"
       style="fill:none;fill-opacity:1;stroke:#ffffff;stroke-width:14.79099941;stroke-linecap:square;stroke-miterlimit:4;stroke-dasharray:none;stroke-opacity:1"
       id="path4153-6-7"
       cx="372.04721"
       cy="680.315" />
    <circle
       style="fill:#ffffff;fill-opacity:1;stroke:#ffffff;stroke-width:9.22557068;stroke-linecap:square;stroke-miterlimit:4;stroke-dasharray:none;stroke-opacity:0"
       id="path4185"
       cx="370.77261"
       cy="333.46307"
       r="24.325733" />
    <circle
       style="fill:#ffffff;fill-opacity:1;stroke:#ffffff;stroke-width:9.22557068;stroke-linecap:square;stroke-miterlimit:4;stroke-dasharray:none;stroke-opacity:0"
       id="path4185-4"
       cx="671.48248"
       cy="867.04626"
       r="24.325733" />
    <circle
       style="fill:#ffffff;fill-opacity:1;stroke:#ffffff;stroke-width:9.22557068;stroke-linecap:square;stroke-miterlimit:4;stroke-dasharray:none;stroke-opacity:0"
       id="path4185-2"
       cx="69.810432"
       cy="867.04626"
       r="24.325733" />
    <ellipse
       cy="680.31494"
       cx="372.04724"
       id="path4153-6"
       style="opacity:1;fill:none;fill-opacity:1;stroke:#ffffff;stroke-width:14.79100037;stroke-linecap:square;stroke-miterlimit:4;stroke-dasharray:none;stroke-opacity:1"
       rx="284.44443"
       ry="284.50339" />
    <ellipse
       style="fill:#ffffff;fill-opacity:1;stroke:#ffffff;stroke-width:14.79100037;stroke-linecap:square;stroke-miterlimit:4;stroke-dasharray:none;stroke-opacity:0"
       id="path4185-7"
       cx="170.34618"
       cy="876.01758"
       rx="24.32575"
       ry="24.086481" />
    <ellipse
       style="fill:#ffffff;fill-opacity:1;stroke:#ffffff;stroke-width:14.79100037;stroke-linecap:square;stroke-miterlimit:4;stroke-dasharray:none;stroke-opacity:0"
       id="path4185-9"
       cx="371.12964"
       cy="962.32751"
       rx="24.32575"
       ry="24.086481" />
    <ellipse
       style="fill:#ffffff;fill-opacity:1;stroke:#ffffff;stroke-width:14.79100037;stroke-linecap:square;stroke-miterlimit:4;stroke-dasharray:none;stroke-opacity:0"
       id="path4185-21"
       cx="574.76178"
       cy="876.01758"
       rx="24.32575"
       ry="24.086481" />
    <ellipse
       style="fill:#ffffff;fill-opacity:1;stroke:#ffffff;stroke-width:14.79100037;stroke-linecap:square;stroke-miterlimit:4;stroke-dasharray:none;stroke-opacity:0"
       id="path4185-0"
       cx="657.37634"
       cy="677.30414"
       rx="24.32575"
       ry="24.086481" />
    <ellipse
       style="fill:#ffffff;fill-opacity:1;stroke:#ffffff;stroke-width:14.79100037;stroke-linecap:square;stroke-miterlimit:4;stroke-dasharray:none;stroke-opacity:0"
       id="path4185-5"
       cx="574.76178"
       cy="478.35654"
       rx="24.32575"
       ry="24.086481" />
    <ellipse
       style="fill:#ffffff;fill-opacity:1;stroke:#ffffff;stroke-width:14.79100037;stroke-linecap:square;stroke-miterlimit:4;stroke-dasharray:none;stroke-opacity:0"
       id="path4185-6"
       cx="371.12964"
       cy="398.30243"
       rx="24.32575"
       ry="24.086481" />
    <ellipse
       style="fill:#ffffff;fill-opacity:1;stroke:#ffffff;stroke-width:14.79100037;stroke-linecap:square;stroke-miterlimit:4;stroke-dasharray:none;stroke-opacity:0"
       id="path4185-3"
       cx="170.34618"
       cy="478.35654"
       rx="24.32575"
       ry="24.086481" />
    <ellipse
       style="fill:#ffffff;fill-opacity:1;stroke:#ffffff;stroke-width:14.79100037;stroke-linecap:square;stroke-miterlimit:4;stroke-dasharray:none;stroke-opacity:0"
       id="path4185-46"
       cx="86.71814"
       cy="677.30414"
       rx="24.32575"
       ry="24.086481" />
    <circle
       style="fill:none;fill-opacity:1;stroke:#ffffff;stroke-width:14.79099941;stroke-linecap:square;stroke-miterlimit:4;stroke-dasharray:none;stroke-opacity:1"
       id="path4153"
       cx="372.04724"
       cy="680.315"
       r="214.98141" />
    <circle
       style="fill:#ffffff;fill-opacity:1;stroke:#ffffff;stroke-width:14.79099941;stroke-linecap:square;stroke-miterlimit:4;stroke-dasharray:none;stroke-opacity:0"
       id="path4185-48"
       cx="371.12964"
       cy="471.37698"
       r="24.325733" />
    <circle
       style="fill:#ffffff;fill-opacity:1;stroke:#ffffff;stroke-width:14.79099941;stroke-linecap:square;stroke-miterlimit:4;stroke-dasharray:none;stroke-opacity:0"
       id="path4185-38"
       cx="371.12964"
       cy="891.25299"
       r="24.325733" />
    <circle
       r="146.10461"
       cy="680.31494"
       cx="372.04724"
       id="path3351"
       style="fill:#ffffff;fill-opacity:1;stroke:#ffffff;stroke-width:8.92516327;stroke-linecap:square;stroke-miterlimit:4;stroke-dasharray:none;stroke-opacity:0" />
    <path
       style="opacity:1;fill:#000000;fill-opacity:1;stroke:#ffffff;stroke-width:0;stroke-linecap:square;stroke-miterlimit:4;stroke-dasharray:none;stroke-dashoffset:0;stroke-opacity:0"
       id="path4511"
       d="m 247.81914,733.7281 c 13.28065,-18.66787 24.67327,-38.65704 35.55381,-58.88358 16.14304,-31.45184 28.67849,-64.61774 40.86194,-97.84583 1.25459,-3.42852 2.50998,-6.85672 3.76376,-10.28552 2.34298,-6.40744 4.43679,-13.02269 7.04775,-19.32525 0.21837,-0.52736 -0.36726,1.08262 -0.55086,1.62394 3.54774,12.19393 0.10027,9.06887 18.57004,7.50665 0.57178,-0.0484 0.44743,-1.24695 0.98413,-1.456 0.0457,-0.0181 -0.18857,2.2876 -0.31487,4.80029 -0.10774,2.14924 -0.1737,4.30049 -0.26057,6.45077 -0.21836,33.01995 -1.2527,66.0159 -2.18357,99.02136 -1.07782,36.56567 -1.49121,73.28537 3.69362,109.54793 2.2481,8.01344 3.54972,28.00571 14.48411,29.10126 7.43339,-1.63182 13.59784,-6.08214 19.77101,-10.39126 12.60781,-8.57461 24.36759,9.81134 11.75976,18.38603 l 0,0 c -12.06348,8.04556 -23.72193,15.37243 -38.70684,12.74968 -2.68032,-1.17812 -5.55811,-1.96214 -8.04096,-3.53433 -14.14194,-8.95556 -17.10553,-27.93952 -20.40187,-43.12843 -5.27132,-37.5433 -5.11714,-75.51558 -3.90878,-113.3712 0.93381,-33.10683 1.95996,-66.20386 2.19413,-99.32497 0.57885,-13.56795 -0.83384,-30.49936 20.88201,-23.03025 2.67792,0.92106 1.85528,5.49861 2.78294,8.2479 -1.97986,11.91151 -8.25446,22.66994 -11.58626,34.20062 -12.54957,34.22656 -25.50005,68.37422 -42.16779,100.74961 -11.8495,21.97846 -24.12731,43.87005 -39.12355,63.76444 -10.67951,11.01239 -25.7826,-4.56147 -15.10309,-15.57386 z"
       inkscape:connector-curvature="0"
       inkscape:export-xdpi="90"
       inkscape:export-ydpi="90" />
    <path
       style="opacity:1;fill:#000000;fill-opacity:1;stroke:#ffffff;stroke-width:0;stroke-linecap:square;stroke-miterlimit:4;stroke-dasharray:none;stroke-dashoffset:0;stroke-opacity:0"
       id="path4513"
       d="m 266.0723,678.94715 c 9.09037,7.26727 19.67181,8.88177 30.84009,9.23531 20.97888,-0.39615 41.00777,-7.28669 60.98559,-13.17278 8.73543,-2.60847 18.11757,-5.12756 26.08861,-9.32509 -1.05608,0.31127 -1.78109,1.52982 -2.22235,2.5385 0.59727,9.90617 11.54382,1.98679 20.90465,0.62593 0.79236,7.88328 -21.49565,6.81972 -21.273,-1.11673 0.12819,-6.25176 0.007,-1.09073 10.90801,-12.12765 -0.66377,0.0807 -1.3734,0.50447 -1.9913,0.24182 -0.14116,-0.0599 0.94752,-0.36924 3.00353,-1.8496 3.88927,-2.80037 7.59679,-5.80571 11.2156,-8.9642 11.48364,-11.17748 15.86416,-21.37658 18.50318,-37.1578 0.65283,-12.27623 -2.73869,-23.54626 -9.70927,-33.37148 -0.60689,-0.57329 -1.18844,-1.17646 -1.82065,-1.71988 -0.51175,-0.43985 -0.98318,-0.98354 -1.60653,-1.22597 -2.07134,-0.80556 1.24452,1.48397 2.29718,1.62517 3.11625,0.41802 2.79704,-1.35738 2.87539,0.55017 -6.68607,18.41457 -9.10269,38.29469 -11.49507,57.70133 -2.49241,28.24546 -2.35482,56.71203 3.95822,84.39379 6.9768,20.44314 14.28649,25.58731 34.79087,27.93874 16.60706,-0.15913 32.5483,-5.15962 47.00676,-13.50884 4.11742,-2.37767 7.9113,-5.30733 11.86697,-7.96096 12.71307,-8.40779 24.24402,10.13164 11.53097,18.53941 l 0,0 c -4.77388,3.11961 -9.36261,6.56314 -14.32163,9.35881 -18.19773,10.25925 -38.26012,15.93408 -59.03191,15.38544 -4.37023,-0.71237 -8.83415,-0.96717 -13.11071,-2.13714 -20.79094,-5.68799 -33.70807,-21.98171 -39.54477,-42.66928 -0.96413,-4.38941 -2.13433,-8.73603 -2.89238,-13.16819 -4.45336,-26.0377 -3.34103,-52.7492 -1.43921,-78.96267 1.7768,-14.27613 3.75007,-28.33719 6.89482,-42.37161 1.29291,-5.76994 3.12924,-13.78473 5.45345,-19.35071 1.02623,-2.4576 2.4877,-4.69661 3.73155,-7.04491 1.58189,-1.74842 2.83238,-3.89424 4.7457,-5.24531 10.48415,-7.40327 20.44295,-1.67759 27.51415,7.10369 10.1074,14.91754 14.97965,31.7648 13.3172,50.09939 -3.91304,21.1852 -10.25053,35.24819 -25.79584,50.08017 -7.38771,6.33371 -15.06928,13.42952 -24.66111,15.67555 10.28045,-12.21982 9.25156,-15.43374 9.15673,-9.21499 -0.27353,9.60179 -24.83629,7.6252 -21.26575,-2.29999 15.79302,-3.59474 20.73437,-10.61775 21.63662,1.60236 0.016,6.44259 -2.08161,12.40506 -7.31887,16.35852 -9.79539,6.04697 -21.1992,8.76084 -32.032,12.15158 -22.17705,6.53364 -44.44601,13.97167 -67.76455,14.0002 -17.35248,-0.92227 -31.46458,-3.81153 -45.03203,-15.66617 -10.67951,-11.01239 4.42359,-26.58625 15.10309,-15.57388 z"
       inkscape:connector-curvature="0"
       inkscape:export-xdpi="90"
       inkscape:export-ydpi="90" />
  </g>
</svg>
