<svg xmlns="http://www.w3.org/2000/svg" width="210mm" height="210mm" viewBox="0 0 744.09449 744.09448"><g transform="translate(0 -308.268)"><text style="line-height:125%" x="219.639" y="1174.449" transform="scale(.9995 1.0005)" font-weight="400" font-size="71.011" font-family="Sans" letter-spacing="0" word-spacing="0" stroke="#ff0" stroke-width="1.775"/><ellipse ry="352.624" rx="352.631" cx="372.047" cy="680.315" fill="#fff" stroke="#22031c" stroke-width="11.247" stroke-linecap="square"/><ellipse cy="680.315" cx="372.047" rx="284.444" ry="284.503" fill="none" stroke="#22031c" stroke-width="17.046" stroke-linecap="square"/><circle cx="372.047" cy="680.315" r="214.981" transform="rotate(-90 372.047 680.315)" fill="none" stroke="#22031c" stroke-width="20.546"/><g fill="#22031c"><circle transform="translate(.675 .414)" r="24.326" cy="333.463" cx="370.773"/><circle transform="translate(13.154 -21.187)" r="24.326" cy="867.046" cx="671.482"/><circle transform="translate(-7.92 -21.187)" r="24.326" cy="867.046" cx="69.81"/><ellipse ry="24.086" rx="24.326" cy="876.018" cx="170.346"/><ellipse ry="24.086" rx="24.326" cy="962.328" cx="371.13"/><ellipse ry="24.086" rx="24.326" cy="876.018" cx="574.762"/><ellipse ry="24.086" rx="24.326" cy="677.304" cx="657.376" transform="translate(0 .625)"/><ellipse ry="24.086" rx="24.326" cy="478.357" cx="574.762"/><ellipse ry="24.086" rx="24.326" cy="398.302" cx="371.13" transform="translate(.318)"/><ellipse ry="24.086" rx="24.326" cy="478.357" cx="170.346"/><ellipse ry="24.086" rx="24.326" cy="677.304" cx="86.718" transform="translate(0 .625)"/><circle transform="translate(209.05 206.553)" r="24.326" cy="471.377" cx="371.13"/><circle transform="translate(-208.947 -213.323)" r="24.326" cy="891.253" cx="371.13"/></g><circle r="146.105" cy="680.315" cx="372.047" fill="#22031c" stroke="#22031c" stroke-width="11.546" stroke-linecap="square"/><g fill="#d6d6d6"><path d="M286.245 720.381c9.62-13.522 17.871-28 25.753-42.652 11.693-22.782 20.773-46.806 29.598-70.874l2.727-7.451c1.697-4.64 3.213-9.433 5.104-13.998.159-.382-.266.784-.398 1.176 2.569 8.833.072 6.57 13.45 5.438.414-.036.325-.903.714-1.055.032-.013-.137 1.657-.229 3.477-.078 1.557-.126 3.115-.188 4.672-.16 23.918-.908 47.819-1.582 71.727-.78 26.486-1.08 53.084 2.675 79.35 1.628 5.805 2.572 20.287 10.492 21.08 5.384-1.182 9.85-4.405 14.32-7.527 9.133-6.21 17.652 7.107 8.52 13.318-8.739 5.828-17.184 11.135-28.038 9.236-1.942-.854-4.026-1.422-5.824-2.56-10.245-6.487-12.39-20.24-14.778-31.24-3.819-27.195-3.707-54.7-2.832-82.12.677-23.982 1.42-47.956 1.59-71.947.419-9.828-.605-22.092 15.125-16.682 1.94.667 1.344 3.983 2.016 5.974-1.434 8.629-5.98 16.421-8.392 24.773-9.09 24.792-18.471 49.527-30.544 72.978-8.584 15.92-17.478 31.777-28.34 46.188-7.736 7.977-18.675-3.304-10.94-11.28z"/><path d="M299.466 680.7c6.584 5.264 14.25 6.434 22.339 6.69 15.197-.287 29.704-5.278 44.175-9.541 6.327-1.89 13.124-3.715 18.897-6.755-.764.225-1.29 1.109-1.61 1.839.433 7.175 8.362 1.439 15.143.453.573 5.71-15.57 4.94-15.41-.809.093-4.528.006-.79 7.902-8.784-.481.058-.995.365-1.442.174-.103-.043.686-.267 2.175-1.34 2.818-2.028 5.503-4.204 8.124-6.492 8.318-8.097 11.491-15.484 13.403-26.915.473-8.892-1.984-17.056-7.034-24.173-.439-.415-.86-.852-1.318-1.246-.37-.319-.712-.712-1.164-.888-1.5-.583.902 1.075 1.665 1.178 2.257.302 2.026-.984 2.082.398-4.843 13.338-6.594 27.739-8.326 41.796-1.805 20.46-1.706 41.079 2.867 61.13 5.053 14.808 10.348 18.534 25.2 20.238 12.03-.116 23.577-3.738 34.05-9.786 2.982-1.722 5.73-3.843 8.596-5.766 9.209-6.09 17.561 7.34 8.352 13.43-3.458 2.259-6.782 4.753-10.373 6.778-13.182 7.432-27.714 11.542-42.76 11.145-3.166-.517-6.4-.701-9.497-1.549-15.06-4.12-24.417-15.922-28.644-30.907-.698-3.18-1.547-6.328-2.096-9.538-3.225-18.86-2.42-38.21-1.042-57.197 1.287-10.34 2.716-20.526 4.994-30.691.937-4.18 2.268-9.986 3.95-14.017.744-1.78 1.802-3.403 2.703-5.103 1.146-1.267 2.052-2.821 3.438-3.8 7.594-5.362 14.808-1.215 19.93 5.145 7.321 10.806 10.85 23.01 9.646 36.29-2.834 15.346-7.424 25.532-18.685 36.276-5.352 4.588-10.916 9.728-17.863 11.355 7.447-8.852 6.7-11.18 6.633-6.675-.199 6.954-17.991 5.523-15.405-1.666 11.44-2.604 15.02-7.691 15.673 1.16.012 4.667-1.508 8.986-5.302 11.85-7.095 4.38-15.355 6.345-23.202 8.801-16.064 4.733-32.194 10.121-49.085 10.141-12.57-.668-22.791-2.76-32.62-11.347-7.735-7.977 3.205-19.258 10.94-11.281z"/></g></g></svg>