<svg xmlns="http://www.w3.org/2000/svg" width="210mm" height="210mm" viewBox="0 0 744.09449 744.09448"><g transform="translate(0 -308.268)"><text style="line-height:125%" x="219.639" y="1174.449" transform="scale(.9995 1.0005)" font-weight="400" font-size="71.011" font-family="Sans" letter-spacing="0" word-spacing="0" stroke="#ff0" stroke-width="1.775"/><ellipse ry="352.624" rx="352.631" cx="372.047" cy="680.315" fill="none" stroke="#000" stroke-width="14.791" stroke-linecap="square"/><circle cx="370.773" cy="333.463" r="24.326"/><circle cx="671.482" cy="867.046" r="24.326"/><circle cx="69.81" cy="867.046" r="24.326"/><ellipse cy="680.315" cx="372.047" rx="284.444" ry="284.503" fill="none" stroke="#000" stroke-width="14.791" stroke-linecap="square"/><ellipse cx="170.346" cy="876.018" rx="24.326" ry="24.086"/><ellipse cx="371.13" cy="962.328" rx="24.326" ry="24.086"/><ellipse cx="574.762" cy="876.018" rx="24.326" ry="24.086"/><ellipse cx="657.376" cy="677.304" rx="24.326" ry="24.086"/><ellipse cx="574.762" cy="478.357" rx="24.326" ry="24.086"/><ellipse cx="371.13" cy="398.302" rx="24.326" ry="24.086"/><ellipse cx="170.346" cy="478.357" rx="24.326" ry="24.086"/><ellipse cx="86.718" cy="677.304" rx="24.326" ry="24.086"/><circle cx="372.047" cy="680.315" r="214.981" fill="none" stroke="#000" stroke-width="14.791" stroke-linecap="square"/><circle cx="371.13" cy="471.377" r="24.326"/><circle cx="371.13" cy="891.253" r="24.326"/><circle r="146.105" cy="680.315" cx="372.047" stroke="#000" stroke-width="8.925" stroke-linecap="square"/><path d="M247.82 733.728c13.28-18.668 24.672-38.657 35.553-58.883 16.143-31.452 28.678-64.618 40.862-97.846l3.764-10.286c2.343-6.407 4.436-13.023 7.047-19.325.219-.527-.367 1.083-.55 1.624 3.547 12.194.1 9.069 18.57 7.507.571-.049.447-1.247.984-1.456.045-.019-.189 2.287-.315 4.8-.108 2.149-.174 4.3-.26 6.45-.22 33.02-1.253 66.016-2.184 99.022-1.078 36.566-1.492 73.285 3.693 109.548 2.248 8.013 3.55 28.006 14.484 29.101 7.434-1.632 13.598-6.082 19.771-10.391 12.608-8.575 24.368 9.811 11.76 18.386-12.063 8.045-23.722 15.372-38.707 12.75-2.68-1.179-5.558-1.963-8.04-3.535-14.143-8.955-17.106-27.94-20.402-43.128-5.272-37.543-5.118-75.516-3.91-113.371.935-33.107 1.96-66.204 2.195-99.325.579-13.568-.834-30.5 20.882-23.03 2.678.92 1.855 5.498 2.783 8.247-1.98 11.912-8.255 22.67-11.586 34.2-12.55 34.227-25.5 68.375-42.168 100.75-11.85 21.979-24.128 43.87-39.124 63.765-10.68 11.012-25.782-4.562-15.103-15.574z" fill="#fff"/><path d="M266.072 678.947c9.09 7.267 19.672 8.882 30.84 9.235 20.98-.396 41.008-7.286 60.986-13.172 8.735-2.609 18.118-5.128 26.089-9.325-1.056.31-1.782 1.53-2.223 2.538.598 9.906 11.544 1.987 20.905.626.792 7.883-21.496 6.82-21.273-1.117.128-6.251.007-1.09 10.908-12.127-.664.08-1.374.504-1.991.241-.142-.06.947-.369 3.003-1.85 3.89-2.8 7.597-5.805 11.216-8.963 11.483-11.178 15.864-21.377 18.503-37.158.653-12.276-2.739-23.546-9.71-33.372-.606-.573-1.188-1.176-1.82-1.72-.512-.44-.983-.983-1.607-1.225-2.07-.806 1.245 1.484 2.298 1.625 3.116.418 2.797-1.358 2.875.55-6.686 18.414-9.103 38.295-11.495 57.701-2.492 28.246-2.355 56.712 3.958 84.394 6.977 20.443 14.287 25.587 34.791 27.939 16.607-.16 32.548-5.16 47.007-13.51 4.117-2.377 7.911-5.306 11.867-7.96 12.713-8.408 24.244 10.132 11.53 18.54-4.773 3.119-9.362 6.562-14.32 9.358-18.199 10.26-38.261 15.934-59.033 15.386-4.37-.713-8.834-.968-13.11-2.138-20.791-5.688-33.709-21.981-39.545-42.669-.964-4.39-2.135-8.736-2.893-13.168-4.453-26.038-3.34-52.75-1.439-78.963 1.777-14.276 3.75-28.337 6.895-42.371 1.293-5.77 3.13-13.785 5.453-19.351 1.027-2.458 2.488-4.697 3.732-7.045 1.582-1.748 2.832-3.894 4.746-5.245 10.484-7.403 20.443-1.678 27.514 7.103 10.107 14.918 14.98 31.765 13.317 50.1-3.913 21.185-10.25 35.248-25.796 50.08-7.388 6.334-15.07 13.43-24.66 15.676 10.28-12.22 9.25-15.434 9.156-9.215-.274 9.601-24.837 7.625-21.266-2.3 15.793-3.595 20.734-10.618 21.637 1.602.016 6.443-2.082 12.405-7.32 16.358-9.795 6.047-21.198 8.761-32.031 12.152-22.177 6.534-44.446 13.972-67.765 14-17.352-.922-31.464-3.811-45.032-15.666-10.68-11.012 4.424-26.586 15.103-15.574z" fill="#fff"/></g></svg>