<svg xmlns="http://www.w3.org/2000/svg" width="210mm" height="210mm" viewBox="0 0 744.09449 744.09448"><g transform="matrix(2.49916 0 0 2.49916 -557.757 -1328.167)"><circle r="146.105" cy="680.315" cx="372.047" fill="#290328"/><g fill="#fff"><path d="M281.842 723.786c9.837-13.828 18.276-28.635 26.336-43.617 11.958-23.299 21.243-47.866 30.269-72.48l2.788-7.62c1.736-4.745 3.286-9.646 5.22-14.314.162-.39-.272.802-.407 1.202 2.627 9.033.074 6.718 13.755 5.561.423-.036.332-.923.73-1.078.033-.014-.14 1.694-.234 3.555-.08 1.592-.129 3.186-.193 4.778-.163 24.46-.928 48.902-1.617 73.351-.799 27.086-1.106 54.286 2.735 81.148 1.665 5.936 2.63 20.745 10.73 21.557 5.506-1.21 10.072-4.506 14.645-7.698 9.339-6.352 18.05 7.268 8.71 13.62-8.935 5.96-17.571 11.387-28.671 9.444-1.986-.873-4.118-1.454-5.956-2.618-10.477-6.634-12.671-20.697-15.113-31.947-3.905-27.81-3.791-55.939-2.896-83.98.692-24.524 1.452-49.04 1.626-73.575.429-10.05-.618-22.593 15.468-17.06 1.984.682 1.374 4.073 2.062 6.11-1.467 8.823-6.115 16.792-8.583 25.333-9.296 25.354-18.889 50.649-31.236 74.63-8.778 16.282-17.873 32.497-28.98 47.235-7.912 8.157-19.099-3.38-11.189-11.537z"/><path d="M295.362 683.207c6.734 5.383 14.573 6.58 22.845 6.841 15.541-.293 30.377-5.397 45.176-9.757 6.47-1.933 13.42-3.799 19.325-6.908-.782.23-1.32 1.134-1.646 1.88.442 7.338 8.55 1.472 15.485.464.587 5.84-15.923 5.052-15.758-.827.095-4.63.005-.808 8.08-8.984-.492.06-1.018.374-1.475.179-.105-.044.702-.273 2.225-1.37 2.881-2.075 5.627-4.3 8.308-6.64 8.506-8.28 11.751-15.835 13.706-27.525.484-9.093-2.029-17.441-7.193-24.72-.448-.424-.88-.871-1.348-1.274-.379-.326-.728-.728-1.19-.908-1.534-.597.922 1.1 1.702 1.204 2.308.31 2.072-1.006 2.13.408-4.953 13.64-6.743 28.367-8.515 42.742-1.846 20.923-1.745 42.01 2.932 62.515 5.168 15.143 10.583 18.953 25.771 20.696 12.302-.119 24.11-3.823 34.82-10.008 3.05-1.76 5.86-3.93 8.791-5.896 9.417-6.229 17.959 7.505 8.541 13.733-3.535 2.31-6.935 4.861-10.607 6.932-13.481 7.6-28.342 11.803-43.73 11.397-3.236-.528-6.543-.717-9.71-1.583-15.402-4.214-24.97-16.283-29.294-31.607-.714-3.252-1.581-6.472-2.143-9.755-3.298-19.287-2.474-39.074-1.066-58.492 1.317-10.575 2.778-20.99 5.108-31.386.958-4.274 2.319-10.211 4.04-14.334.76-1.821 1.842-3.48 2.764-5.219 1.172-1.295 2.098-2.884 3.515-3.885 7.766-5.484 15.144-1.243 20.381 5.261 7.487 11.05 11.097 23.53 9.865 37.112-2.899 15.693-7.593 26.11-19.108 37.097-5.473 4.692-11.164 9.948-18.267 11.612 7.615-9.052 6.852-11.433 6.782-6.826-.203 7.112-18.398 5.648-15.753-1.704 11.699-2.663 15.359-7.865 16.028 1.187.012 4.773-1.542 9.189-5.423 12.117-7.255 4.48-15.702 6.49-23.727 9.002-16.427 4.84-32.923 10.35-50.197 10.37-12.853-.683-23.307-2.823-33.357-11.604-7.911-8.158 3.277-19.694 11.187-11.537z"/></g></g></svg>